<?xml version="1.0" encoding="UTF-8"?>
<svg id="Layer_1" xmlns="http://www.w3.org/2000/svg" version="1.1" viewBox="0 0 256 575.63">
  <!-- Generator: Adobe Illustrator 30.0.0, SVG Export Plug-In . SVG Version: 2.1.1 Build 123)  -->
  <path d="M150.6,8.93c-12.5-12.5-32.8-12.5-45.3,0L9.3,104.93c-12.5,12.5-12.5,32.8,0,45.3s32.8,12.5,45.3,0l41.4-41.4v357.4l-41.4-41.3c-12.5-12.5-32.8-12.5-45.3,0s-12.5,32.8,0,45.3l96,96c6,6,14.1,9.4,22.6,9.4s16.6-3.4,22.6-9.4l96-96c12.5-12.5,12.5-32.8,0-45.3s-32.8-12.5-45.3,0l-41.4,41.4V108.83l41.4,41.4c12.5,12.5,32.8,12.5,45.3,0,12.5-12.5,12.5-32.8,0-45.3L150.5,8.93h.1Z"/>
</svg>